<svg width="18" height="18" viewBox="0 0 18 18" fill="none" xmlns="http://www.w3.org/2000/svg">
<path fill-rule="evenodd" clip-rule="evenodd" d="M6.66154 1.61538C6.66154 1.27552 6.38602 1 6.04615 1C5.70629 1 5.43077 1.27552 5.43077 1.61538V2.23077H4.56923C2.5874 2.23077 1 3.86395 1 5.8547V7.76923V13.3761C1 15.3668 2.5874 17 4.56923 17H13.4308C15.4126 17 17 15.3668 17 13.3761V7.76923V5.8547C17 3.86395 15.4126 2.23077 13.4308 2.23077H12.5692V1.61538C12.5692 1.27552 12.2937 1 11.9538 1C11.614 1 11.3385 1.27552 11.3385 1.61538V2.23077H6.66154V1.61538ZM5.43077 3.46154V4.69231C5.43077 5.03218 5.70629 5.30769 6.04615 5.30769C6.38602 5.30769 6.66154 5.03218 6.66154 4.69231V3.46154H11.3385V4.69231C11.3385 5.03218 11.614 5.30769 11.9538 5.30769C12.2937 5.30769 12.5692 5.03218 12.5692 4.69231V3.46154H13.4308C14.7117 3.46154 15.7692 4.5223 15.7692 5.8547V7.15385H2.23077V5.8547C2.23077 4.5223 3.28833 3.46154 4.56923 3.46154H5.43077ZM2.23077 8.38462V13.3761C2.23077 14.7085 3.28833 15.7692 4.56923 15.7692H13.4308C14.7117 15.7692 15.7692 14.7085 15.7692 13.3761V8.38462H2.23077Z" fill="#8C909C"/>
</svg>
