<svg width="14" height="15" viewBox="0 0 14 15" fill="none" xmlns="http://www.w3.org/2000/svg">
<path fill-rule="evenodd" clip-rule="evenodd" d="M11.1638 3.8861C11.3157 3.73423 11.3157 3.48799 11.1638 3.33612C11.0119 3.18425 10.7657 3.18425 10.6138 3.33612L6.99995 6.95003L3.38604 3.33612C3.23417 3.18425 2.98794 3.18425 2.83607 3.33612C2.6842 3.48799 2.6842 3.73423 2.83607 3.8861L6.44997 7.5L2.83607 11.1139C2.6842 11.2658 2.6842 11.512 2.83607 11.6639C2.98794 11.8157 3.23417 11.8157 3.38604 11.6639L6.99995 8.04997L10.6138 11.6639C10.7657 11.8157 11.0119 11.8157 11.1638 11.6639C11.3157 11.512 11.3157 11.2658 11.1638 11.1139L7.54992 7.5L11.1638 3.8861Z" fill="#FAFAFA"/>
</svg>
