<svg width="13" height="19" viewBox="0 0 13 19" fill="none" xmlns="http://www.w3.org/2000/svg">
<path d="M7.15669 9.04762C6.79404 9.41747 6.20596 9.41747 5.84331 9.04762L3.54291 6.99786C3.3612 6.81254 3.35998 6.51253 3.54018 6.32569C3.72255 6.13659 4.02114 6.13531 4.20507 6.32284L6.03571 8.1893V0.47337C6.03571 0.211935 6.24358 0 6.5 0C6.75642 0 6.96429 0.211935 6.96429 0.47337V8.1893L8.79447 6.32331C8.97822 6.13596 9.27645 6.13703 9.4589 6.32568C9.63953 6.51245 9.63852 6.81283 9.45663 6.99833L7.15669 9.04762ZM1.49964 12.958C1.0725 12.958 0.715928 12.8122 0.429928 12.5206C0.143309 12.2284 0 11.8646 0 11.4291V9.60847C0 9.34704 0.207868 9.1351 0.464286 9.1351C0.720704 9.1351 0.928571 9.34704 0.928571 9.60847V11.4291C0.928571 11.5742 0.988 11.7077 1.10686 11.8295C1.22633 11.9507 1.35726 12.0113 1.49964 12.0113H11.5004C11.6427 12.0113 11.7737 11.9507 11.8931 11.8295C12.012 11.7077 12.0714 11.5742 12.0714 11.4291V9.60847C12.0714 9.34704 12.2793 9.1351 12.5357 9.1351C12.7921 9.1351 13 9.34704 13 9.60847V11.4291C13 11.8646 12.857 12.2281 12.571 12.5197C12.2844 12.8119 11.9275 12.958 11.5004 12.958H1.49964Z" fill="#121212"/>
<path d="M9.62866 14.538H12.6777V15.1755H10.3127V16.4196H12.1792V17.0541H10.3127V18.9979H9.62866V14.538Z" fill="#121212"/>
<path d="M4.89697 14.538H6.42304C7.029 14.538 7.54884 14.7578 7.98254 15.1973C8.41624 15.6369 8.63309 16.1604 8.63309 16.7679C8.63309 17.3754 8.41624 17.899 7.98254 18.3385C7.54884 18.7781 7.029 18.9979 6.42304 18.9979H4.89697V14.538ZM6.42304 15.1755H5.58096V18.3603H6.42304C6.8466 18.3603 7.20633 18.2069 7.50222 17.9C7.79811 17.5911 7.94606 17.2137 7.94606 16.7679C7.94606 16.3221 7.79811 15.9458 7.50222 15.639C7.20633 15.33 6.8466 15.1755 6.42304 15.1755Z" fill="#121212"/>
<path d="M0.696533 14.538H2.43843C2.8539 14.538 3.20147 14.6779 3.48114 14.9578C3.76285 15.2357 3.9037 15.5747 3.9037 15.9748C3.9037 16.3729 3.76285 16.7109 3.48114 16.9887C3.20147 17.2666 2.8539 17.4055 2.43843 17.4055H1.38053V18.9979H0.696533V14.538ZM2.43843 15.1755H1.38053V16.7679H2.43843C2.65326 16.7679 2.83667 16.6922 2.98867 16.5409C3.14067 16.3875 3.21667 16.1988 3.21667 15.9748C3.21667 15.7488 3.14067 15.5591 2.98867 15.4057C2.83667 15.2523 2.65326 15.1755 2.43843 15.1755Z" fill="#121212"/>
</svg>
