<svg width="13" height="19" viewBox="0 0 13 19" fill="none" xmlns="http://www.w3.org/2000/svg">
<path d="M7.15669 9.04762C6.79404 9.41747 6.20596 9.41747 5.84331 9.04762L3.54291 6.99786C3.3612 6.81254 3.35998 6.51253 3.54018 6.32569C3.72255 6.13659 4.02114 6.13531 4.20507 6.32284L6.03571 8.1893V0.47337C6.03571 0.211935 6.24358 0 6.5 0C6.75642 0 6.96429 0.211935 6.96429 0.47337V8.1893L8.79447 6.32331C8.97822 6.13596 9.27645 6.13703 9.4589 6.32568C9.63953 6.51245 9.63852 6.81283 9.45663 6.99833L7.15669 9.04762ZM1.49964 12.958C1.0725 12.958 0.715928 12.8122 0.429928 12.5206C0.143309 12.2284 0 11.8646 0 11.4291V9.60847C0 9.34704 0.207868 9.1351 0.464286 9.1351C0.720704 9.1351 0.928571 9.34704 0.928571 9.60847V11.4291C0.928571 11.5742 0.988 11.7077 1.10686 11.8295C1.22633 11.9507 1.35726 12.0113 1.49964 12.0113H11.5004C11.6427 12.0113 11.7737 11.9507 11.8931 11.8295C12.012 11.7077 12.0714 11.5742 12.0714 11.4291V9.60847C12.0714 9.34704 12.2793 9.1351 12.5357 9.1351C12.7921 9.1351 13 9.34704 13 9.60847V11.4291C13 11.8646 12.857 12.2281 12.571 12.5197C12.2844 12.8119 11.9275 12.958 11.5004 12.958H1.49964Z" fill="#121212"/>
<path d="M10.8989 17.2564L12.0975 18.9283H11.3321L10.4982 17.7593L9.66443 18.9283H8.89575L10.0976 17.2564L8.99672 15.7184H9.76214L10.4982 16.7535L11.2311 15.7184H11.9998L10.8989 17.2564Z" fill="#121212"/>
<path d="M8.4329 16.0954L7.99971 16.5297C7.98233 16.5123 7.95628 16.4883 7.92154 16.4579C7.88896 16.4252 7.81948 16.3849 7.71308 16.3371C7.60885 16.287 7.50354 16.262 7.39714 16.262C7.25383 16.262 7.13983 16.2957 7.05515 16.3632C6.97263 16.4285 6.93138 16.5058 6.93138 16.595C6.93138 16.6886 6.97155 16.767 7.05189 16.8301C7.13223 16.8933 7.2332 16.9411 7.3548 16.9738C7.4764 17.0065 7.60668 17.0478 7.74565 17.0979C7.88679 17.1458 8.01816 17.2002 8.13976 17.2611C8.26353 17.3221 8.36559 17.4157 8.44593 17.542C8.52627 17.6682 8.56644 17.8206 8.56644 17.9991C8.56644 18.2756 8.45461 18.5118 8.23096 18.7077C8.00948 18.9036 7.72068 19.0016 7.36457 19.0016C7.20823 19.0016 7.0584 18.982 6.91509 18.9428C6.77395 18.9036 6.65778 18.8568 6.56658 18.8024C6.47538 18.748 6.39504 18.6935 6.32555 18.6391C6.25824 18.5825 6.20938 18.5346 6.17898 18.4954L6.13013 18.4334L6.56332 17.9991C6.58504 18.0296 6.61652 18.0677 6.65778 18.1134C6.70121 18.1591 6.79241 18.219 6.93138 18.293C7.07252 18.3648 7.21691 18.4008 7.36457 18.4008C7.54263 18.4008 7.67617 18.3648 7.76519 18.293C7.85422 18.219 7.89874 18.121 7.89874 17.9991C7.89874 17.9055 7.85856 17.8282 7.77822 17.7673C7.69788 17.7041 7.59691 17.6563 7.47531 17.6236C7.35371 17.5888 7.22234 17.5474 7.0812 17.4995C6.94223 17.4494 6.81086 17.395 6.68709 17.3363C6.56549 17.2753 6.46452 17.1817 6.38418 17.0554C6.30384 16.927 6.26367 16.7735 6.26367 16.595C6.26367 16.349 6.37115 16.1313 6.58612 15.9419C6.80326 15.7526 7.0736 15.6579 7.39714 15.6579C7.52525 15.6579 7.64902 15.6731 7.76845 15.7036C7.89005 15.7319 7.98885 15.7678 8.06485 15.8113C8.14085 15.8527 8.20707 15.8962 8.26353 15.9419C8.32216 15.9855 8.3645 16.0203 8.39056 16.0464L8.4329 16.0954Z" fill="#121212"/>
<path d="M5.39809 14.25V18.9325H4.73364V14.25H5.39809Z" fill="#121212"/>
<path d="M2.93159 17.2564L4.1302 18.9283H3.36478L2.53096 17.7593L1.69714 18.9283H0.928467L2.13034 17.2564L1.02944 15.7184H1.79486L2.53096 16.7535L3.26381 15.7184H4.03249L2.93159 17.2564Z" fill="#121212"/>
</svg>
