<svg width="14" height="15" viewBox="0 0 14 15" fill="none" xmlns="http://www.w3.org/2000/svg">
<path fill-rule="evenodd" clip-rule="evenodd" d="M10.2 5.77778H3.86662C2.70068 5.77778 1.75551 6.72296 1.75551 7.8889V11.0556C1.75551 12.2215 2.70068 13.1667 3.86662 13.1667H10.2C11.3659 13.1667 12.3111 12.2215 12.3111 11.0556V7.8889C12.3111 6.72296 11.3659 5.77778 10.2 5.77778ZM3.86662 4.72223C2.11772 4.72223 0.699951 6.13999 0.699951 7.8889V11.0556C0.699951 12.8045 2.11772 14.2222 3.86662 14.2222H10.2C11.9489 14.2222 13.3666 12.8045 13.3666 11.0556V7.8889C13.3666 6.13999 11.9489 4.72223 10.2 4.72223H3.86662Z" fill="#8C909C"/>
<path fill-rule="evenodd" clip-rule="evenodd" d="M9.14423 4.72222V3.66667C9.14423 2.50073 8.19906 1.55556 7.03312 1.55556C5.86719 1.55556 4.92201 2.50073 4.92201 3.66667V4.72222H9.14423ZM7.03312 0.5C5.28422 0.5 3.86646 1.91777 3.86646 3.66667V5.77778H10.1998V3.66667C10.1998 1.91777 8.78202 0.5 7.03312 0.5Z" fill="#8C909C"/>
<path d="M8.08889 8.94447C8.08889 9.52744 7.61631 10 7.03334 10C6.45037 10 5.97778 9.52744 5.97778 8.94447C5.97778 8.3615 6.45037 7.88892 7.03334 7.88892C7.61631 7.88892 8.08889 8.3615 8.08889 8.94447Z" fill="#8C909C"/>
<path fill-rule="evenodd" clip-rule="evenodd" d="M7.03339 8.41669C7.32488 8.41669 7.56117 8.65298 7.56117 8.94446V11.0556C7.56117 11.3471 7.32488 11.5834 7.03339 11.5834C6.74191 11.5834 6.50562 11.3471 6.50562 11.0556V8.94446C6.50562 8.65298 6.74191 8.41669 7.03339 8.41669Z" fill="#8C909C"/>
</svg>
