<svg width="18" height="18" viewBox="0 0 18 18" fill="none" xmlns="http://www.w3.org/2000/svg">
<path fill-rule="evenodd" clip-rule="evenodd" d="M14.0001 7.61538C14.0001 9.61211 12.3814 11.2308 10.3847 11.2308C8.38795 11.2308 6.76929 9.61211 6.76929 7.61538C6.76929 5.61866 8.38795 4 10.3847 4C12.3814 4 14.0001 5.61866 14.0001 7.61538ZM15.0001 7.61538C15.0001 10.1644 12.9337 12.2308 10.3847 12.2308C9.29027 12.2308 8.28484 11.8499 7.49372 11.2134L3.35355 15.3536C3.15829 15.5488 2.84171 15.5488 2.64645 15.3536C2.45118 15.1583 2.45118 14.8417 2.64645 14.6465L6.78662 10.5063C6.15018 9.71517 5.76929 8.70976 5.76929 7.61538C5.76929 5.06638 7.83567 3 10.3847 3C12.9337 3 15.0001 5.06638 15.0001 7.61538Z" fill="#8C909C"/>
</svg>
