<svg width="25" height="25" viewBox="0 0 25 25" fill="none" xmlns="http://www.w3.org/2000/svg">
<path fill-rule="evenodd" clip-rule="evenodd" d="M2.7778 10.4167V19.4445C2.7778 20.9786 4.02146 22.2222 5.55558 22.2222H6.94447C7.71153 22.2222 8.33336 21.6004 8.33336 20.8333V16.6667C8.33336 14.3655 10.1988 12.5 12.5 12.5C14.8012 12.5 16.6667 14.3655 16.6667 16.6667V20.8333C16.6667 21.6004 17.2885 22.2222 18.0556 22.2222H19.4445C20.9786 22.2222 22.2222 20.9786 22.2222 19.4445V10.4167C22.2222 9.54235 21.8106 8.71905 21.1111 8.19445L14.1667 2.98612C13.179 2.24538 11.821 2.24538 10.8334 2.98612L3.88892 8.19445C3.18946 8.71905 2.7778 9.54235 2.7778 10.4167ZM1.38892 19.4445C1.38892 21.7456 3.2544 23.6111 5.55558 23.6111H6.94447C8.4786 23.6111 9.72225 22.3675 9.72225 20.8333V16.6667C9.72225 15.1325 10.9659 13.8889 12.5 13.8889C14.0342 13.8889 15.2778 15.1325 15.2778 16.6667V20.8333C15.2778 22.3675 16.5215 23.6111 18.0556 23.6111H19.4445C21.7457 23.6111 23.6111 21.7456 23.6111 19.4445V10.4167C23.6111 9.10518 22.9937 7.87023 21.9445 7.08334L15 1.87501C13.5185 0.763894 11.4815 0.763894 10 1.875L3.05558 7.08334C2.00639 7.87023 1.38892 9.10518 1.38892 10.4167V19.4445Z" fill="#121212"/>
</svg>
