<svg width="25" height="25" viewBox="0 0 25 25" fill="none" xmlns="http://www.w3.org/2000/svg">
<path fill-rule="evenodd" clip-rule="evenodd" d="M18.0559 2.77777H11.1114C10.0833 2.77777 9.18556 3.33638 8.70527 4.16666H7.18186C7.75385 2.54834 9.29724 1.38889 11.1114 1.38889H18.0559C20.3571 1.38889 22.2225 3.25437 22.2225 5.55555V15.2778C22.2225 17.092 21.0631 18.6354 19.4448 19.2073V17.6839C20.275 17.2036 20.8337 16.3059 20.8337 15.2778V5.55555C20.8337 4.02143 19.59 2.77777 18.0559 2.77777ZM6.9445 6.94444H13.8889C15.4231 6.94444 16.6667 8.18809 16.6667 9.72222V19.4444C16.6667 20.9786 15.4231 22.2222 13.8889 22.2222H6.9445C5.41037 22.2222 4.16672 20.9786 4.16672 19.4444V9.72222C4.16672 8.18809 5.41037 6.94444 6.9445 6.94444ZM2.77783 9.72222C2.77783 7.42103 4.64331 5.55555 6.9445 5.55555H13.8889C16.1901 5.55555 18.0556 7.42103 18.0556 9.72222V19.4444C18.0556 21.7456 16.1901 23.6111 13.8889 23.6111H6.9445C4.64331 23.6111 2.77783 21.7456 2.77783 19.4444V9.72222Z" fill="#121212"/>
</svg>
