<svg width="25" height="25" viewBox="0 0 25 25" fill="none" xmlns="http://www.w3.org/2000/svg">
<path fill-rule="evenodd" clip-rule="evenodd" d="M2.08325 11.4198C2.08325 6.18819 6.79285 2.08333 12.4999 2.08333C18.207 2.08333 22.9166 6.18819 22.9166 11.4198C22.9166 16.6513 18.207 20.7562 12.4999 20.7562C11.4047 20.7577 10.3155 20.6002 9.26639 20.2893L4.16901 22.8431C3.9265 22.9646 3.63545 22.9338 3.42376 22.7642C3.21207 22.5946 3.11849 22.3173 3.18415 22.0541L4.37715 17.2721C2.92142 15.6761 2.10144 13.595 2.08328 11.4256L2.08325 11.4198ZM3.47214 11.4168C3.48913 13.3543 4.26564 15.2077 5.63481 16.5787C5.80698 16.7511 5.87621 17.0011 5.81723 17.2375L4.89736 20.9247L8.8941 18.9223C9.05719 18.8406 9.24589 18.8264 9.41941 18.8826C10.414 19.2052 11.4533 19.3688 12.4989 19.3673C17.5943 19.3673 21.5277 15.7376 21.5277 11.4198C21.5277 7.10193 17.5953 3.47222 12.4999 3.47222C7.40566 3.47222 3.47391 7.10031 3.47214 11.4168Z" fill="#121212"/>
</svg>
