<svg width="25" height="25" viewBox="0 0 25 25" fill="none" xmlns="http://www.w3.org/2000/svg">
<path fill-rule="evenodd" clip-rule="evenodd" d="M18.0556 6.94444H19.4445C21.7457 6.94444 23.6111 8.80992 23.6111 11.1111V19.4444C23.6111 21.7456 21.7457 23.6111 19.4445 23.6111H5.55558C3.2544 23.6111 1.38892 21.7456 1.38892 19.4444V11.1111C1.38892 8.80992 3.2544 6.94444 5.55558 6.94444H6.94447V5.55556C6.94447 3.25437 8.80995 1.38889 11.1111 1.38889H13.8889C16.1901 1.38889 18.0556 3.25437 18.0556 5.55556V6.94444ZM13.8889 2.77778H11.1111C9.57701 2.77778 8.33336 4.02143 8.33336 5.55556V6.94444H16.6667V5.55556C16.6667 4.02143 15.423 2.77778 13.8889 2.77778ZM5.55558 8.33333H19.4445C20.9786 8.33333 22.2222 9.57699 22.2222 11.1111V19.4444C22.2222 20.9786 20.9786 22.2222 19.4445 22.2222H5.55558C4.02146 22.2222 2.7778 20.9786 2.7778 19.4444V11.1111C2.7778 9.57699 4.02146 8.33333 5.55558 8.33333Z" fill="#121212"/>
</svg>
