<svg width="25" height="25" viewBox="0 0 25 25" fill="none" xmlns="http://www.w3.org/2000/svg">
<path fill-rule="evenodd" clip-rule="evenodd" d="M11.8056 22.1978C6.98963 21.8579 3.14211 18.0104 2.80222 13.1944H5.58987C5.91564 16.4756 8.52518 19.0849 11.8064 19.4102C11.8059 19.4216 11.8056 19.433 11.8056 19.4444V22.1978ZM13.1945 22.1978V19.4444C13.1945 19.433 13.1942 19.4216 13.1936 19.4102C16.4749 19.0849 19.0844 16.4756 19.4102 13.1944H22.1978C21.8579 18.0104 18.0104 21.8579 13.1945 22.1978ZM12.5 23.6111C18.6365 23.6111 23.6111 18.6365 23.6111 12.5C23.6111 6.3635 18.6365 1.38889 12.5 1.38889C6.36353 1.38889 1.38892 6.3635 1.38892 12.5C1.38892 18.6365 6.36353 23.6111 12.5 23.6111ZM22.1978 11.8056C21.8579 6.9896 18.0104 3.14208 13.1945 2.8022V5.55556C13.1945 5.56703 13.1942 5.57843 13.1936 5.58976C16.4749 5.91514 19.0844 8.52443 19.4102 11.8056H22.1978ZM2.80222 11.8056C3.14211 6.9896 6.98963 3.14208 11.8056 2.8022V5.55556C11.8056 5.56703 11.8059 5.57843 11.8064 5.58976C8.52518 5.91515 5.91564 8.52444 5.58987 11.8056H2.80222ZM18.0556 12.5C18.0556 9.43175 15.5683 6.94444 12.5 6.94444C9.43178 6.94444 6.94447 9.43175 6.94447 12.5C6.94447 15.5682 9.43178 18.0556 12.5 18.0556C15.5683 18.0556 18.0556 15.5682 18.0556 12.5Z" fill="#121212"/>
</svg>
