<svg width="25" height="25" viewBox="0 0 25 25" fill="none" xmlns="http://www.w3.org/2000/svg">
<path fill-rule="evenodd" clip-rule="evenodd" d="M16.6666 6.25C15.516 6.25 14.5832 7.18274 14.5832 8.33334C14.5832 9.48393 15.516 10.4167 16.6666 10.4167C17.8172 10.4167 18.7499 9.48393 18.7499 8.33334C18.7499 7.18274 17.8172 6.25 16.6666 6.25ZM13.1943 8.33334C13.1943 6.41568 14.7489 4.86111 16.6666 4.86111C18.5842 4.86111 20.1388 6.41568 20.1388 8.33334C20.1388 10.251 18.5842 11.8056 16.6666 11.8056C14.7489 11.8056 13.1943 10.251 13.1943 8.33334Z" fill="#121212"/>
<path fill-rule="evenodd" clip-rule="evenodd" d="M2.08325 8.33333C2.08325 7.9498 2.39417 7.63889 2.7777 7.63889H13.8888C14.2723 7.63889 14.5833 7.9498 14.5833 8.33333C14.5833 8.71686 14.2723 9.02777 13.8888 9.02777H2.7777C2.39417 9.02777 2.08325 8.71686 2.08325 8.33333Z" fill="#121212"/>
<path fill-rule="evenodd" clip-rule="evenodd" d="M18.75 8.33333C18.75 7.9498 19.0609 7.63889 19.4444 7.63889H22.2222C22.6058 7.63889 22.9167 7.9498 22.9167 8.33333C22.9167 8.71686 22.6058 9.02777 22.2222 9.02777H19.4444C19.0609 9.02777 18.75 8.71686 18.75 8.33333Z" fill="#121212"/>
<path fill-rule="evenodd" clip-rule="evenodd" d="M8.33331 14.5833C7.18271 14.5833 6.24997 15.5161 6.24997 16.6667C6.24997 17.8173 7.18271 18.75 8.33331 18.75C9.4839 18.75 10.4166 17.8173 10.4166 16.6667C10.4166 15.5161 9.4839 14.5833 8.33331 14.5833ZM4.86108 16.6667C4.86108 14.749 6.41565 13.1944 8.33331 13.1944C10.251 13.1944 11.8055 14.749 11.8055 16.6667C11.8055 18.5843 10.251 20.1389 8.33331 20.1389C6.41565 20.1389 4.86108 18.5843 4.86108 16.6667Z" fill="#121212"/>
<path fill-rule="evenodd" clip-rule="evenodd" d="M10.4167 16.6667C10.4167 16.2831 10.7277 15.9722 11.1112 15.9722H22.2223C22.6058 15.9722 22.9167 16.2831 22.9167 16.6667C22.9167 17.0502 22.6058 17.3611 22.2223 17.3611H11.1112C10.7277 17.3611 10.4167 17.0502 10.4167 16.6667Z" fill="#121212"/>
<path fill-rule="evenodd" clip-rule="evenodd" d="M2.08325 16.6667C2.08325 16.2831 2.39417 15.9722 2.7777 15.9722H5.55547C5.93901 15.9722 6.24992 16.2831 6.24992 16.6667C6.24992 17.0502 5.93901 17.3611 5.55547 17.3611H2.7777C2.39417 17.3611 2.08325 17.0502 2.08325 16.6667Z" fill="#121212"/>
</svg>
