<svg width="20" height="35" viewBox="0 0 20 35" fill="none" xmlns="http://www.w3.org/2000/svg">
<path d="M14.7343 3.71609C14.7343 5.76843 13.0437 7.43218 10.9583 7.43218C8.87285 7.43218 7.18228 5.76843 7.18228 3.71609C7.18228 1.66375 8.87285 0 10.9583 0C13.0437 0 14.7343 1.66375 14.7343 3.71609Z" fill="#121212"/>
<path fill-rule="evenodd" clip-rule="evenodd" d="M0.629874 18.4779C0.629874 18.4456 0.629875 18.4134 0.643382 18.3811C0.963675 16.1879 1.70652 13.989 3.18257 12.2781C6.12116 8.87152 11.9347 7.97905 15.6972 10.5558C17.5032 11.792 18.5914 13.6795 18.5914 15.8594C18.5914 17.4544 17.945 19.1881 16.8028 20.3388C16.4211 20.6853 16.0041 20.9921 15.5582 21.2541C15.6663 21.2901 15.8187 21.3509 16.0175 21.444C16.9556 21.8899 17.7869 22.5267 18.4563 23.3124C19.4473 24.4698 19.9936 25.9329 19.9999 27.4463C19.9999 29.673 19.1779 31.489 17.534 32.8941C15.9094 34.2968 13.6796 34.9987 10.8445 35C8.48478 35 6.09994 34.3126 4.24764 32.841C2.22748 31.2345 1.201 28.9027 0.786161 26.4247C0.330292 23.7984 0.27761 21.1196 0.629874 18.4779ZM10.9583 30.8757C12.7421 30.8757 14.1882 29.4525 14.1882 27.697C14.1882 25.9414 12.7421 24.5183 10.9583 24.5183C9.17443 24.5183 7.72834 25.9414 7.72834 27.697C7.72834 29.4525 9.17443 30.8757 10.9583 30.8757Z" fill="#121212"/>
</svg>
