<svg width="25" height="25" viewBox="0 0 25 25" fill="none" xmlns="http://www.w3.org/2000/svg">
<path fill-rule="evenodd" clip-rule="evenodd" d="M6.2034 19.8003C5.9322 19.534 5.9322 19.1023 6.2034 18.836L12.6568 12.5L6.2034 6.16391C5.9322 5.89764 5.9322 5.46594 6.2034 5.19967C6.47459 4.9334 6.91429 4.9334 7.18549 5.19967L14.1299 12.0179C14.4011 12.2841 14.4011 12.7158 14.1299 12.9821L7.18549 19.8003C6.91429 20.0665 6.4746 20.0665 6.2034 19.8003Z" fill="#BDBFC7"/>
<path fill-rule="evenodd" clip-rule="evenodd" d="M11.8694 19.8003C11.5982 19.534 11.5982 19.1023 11.8694 18.836L18.3228 12.5L11.8694 6.16391C11.5982 5.89764 11.5982 5.46594 11.8694 5.19967C12.1406 4.9334 12.5803 4.9334 12.8515 5.19967L19.796 12.0179C20.0671 12.2841 20.0671 12.7158 19.796 12.9821L12.8515 19.8003C12.5803 20.0665 12.1406 20.0665 11.8694 19.8003Z" fill="#BDBFC7"/>
</svg>
